<svg width="163" height="44" viewBox="0 0 163 44" fill="none" xmlns="http://www.w3.org/2000/svg">
<path d="M35.8 36V7.2H39.904V32.328H46.78V36H35.8ZM55.6771 36.324C53.3251 36.324 51.6571 35.856 50.6731 34.92C49.7131 33.96 49.1731 32.376 49.0531 30.168C49.0291 29.568 49.0051 28.848 48.9811 28.008C48.9571 27.144 48.9451 26.244 48.9451 25.308C48.9451 24.372 48.9451 23.46 48.9451 22.572C48.9691 21.66 49.0051 20.88 49.0531 20.232C49.1731 17.976 49.7131 16.392 50.6731 15.48C51.6571 14.544 53.3251 14.076 55.6771 14.076C57.2611 14.076 58.5211 14.292 59.4571 14.724C60.3931 15.132 61.0651 15.792 61.4731 16.704C61.9051 17.592 62.1691 18.768 62.2651 20.232C62.2891 21.072 62.3011 22.104 62.3011 23.328C62.3251 24.528 62.3251 25.752 62.3011 27C62.3011 28.224 62.2891 29.28 62.2651 30.168C62.1691 31.632 61.9051 32.82 61.4731 33.732C61.0411 34.644 60.3571 35.304 59.4211 35.712C58.4851 36.12 57.2371 36.324 55.6771 36.324ZM55.6771 33.192C56.5651 33.192 57.1771 33.024 57.5131 32.688C57.8731 32.352 58.0651 31.836 58.0891 31.14C58.1851 29.004 58.2331 27.012 58.2331 25.164C58.2331 23.292 58.1851 21.312 58.0891 19.224C58.0651 18.528 57.8731 18.024 57.5131 17.712C57.1531 17.376 56.5411 17.208 55.6771 17.208C54.7891 17.208 54.1531 17.388 53.7691 17.748C53.3851 18.084 53.1811 18.588 53.1571 19.26C53.1091 20.964 53.0731 22.86 53.0491 24.948C53.0491 27.012 53.0971 29.076 53.1931 31.14C53.2171 31.836 53.4091 32.352 53.7691 32.688C54.1531 33.024 54.7891 33.192 55.6771 33.192ZM72.1662 42.66C70.1502 42.66 68.5542 42.372 67.3782 41.796C66.2262 41.22 65.5782 40.452 65.4342 39.492C65.4102 39.348 65.3862 39.168 65.3622 38.952C65.3382 38.736 65.3382 38.544 65.3622 38.376C65.4342 37.776 65.6982 37.284 66.1542 36.9C66.6342 36.54 67.2462 36.3 67.9902 36.18V35.568C66.5502 35.304 65.7582 34.644 65.6142 33.588C65.6142 33.372 65.6142 33.204 65.6142 33.084C65.6142 32.94 65.6142 32.796 65.6142 32.652C65.6862 32.148 65.9262 31.704 66.3342 31.32C66.7662 30.936 67.3302 30.696 68.0262 30.6V29.988C67.1382 29.604 66.4782 29.004 66.0462 28.188C65.6142 27.372 65.3622 26.316 65.2902 25.02C65.2422 24.012 65.2182 23.1 65.2182 22.284C65.2182 21.468 65.2422 20.604 65.2902 19.692C65.4102 17.676 65.9742 16.236 66.9822 15.372C67.9902 14.508 69.5982 14.076 71.8062 14.076C74.6862 14.076 76.5582 14.856 77.4222 16.416H78.0702C78.2142 15.096 79.1022 14.424 80.7342 14.4V17.568H80.2662C79.6422 17.568 79.1622 17.736 78.8262 18.072C78.4902 18.384 78.3222 18.936 78.3222 19.728C78.3462 20.904 78.3462 21.888 78.3222 22.68C78.3222 23.472 78.3102 24.252 78.2862 25.02C78.1662 27.012 77.6022 28.452 76.5942 29.34C75.6102 30.204 74.0142 30.636 71.8062 30.636C71.7582 30.636 71.6982 30.636 71.6262 30.636C71.5782 30.636 71.5302 30.636 71.4822 30.636C70.4982 30.636 69.8262 30.744 69.4662 30.96C69.1302 31.152 68.9622 31.428 68.9622 31.788V32.004C68.9622 32.412 69.2382 32.688 69.7902 32.832C70.3422 32.952 71.2422 33.024 72.4902 33.048C74.7222 33.096 76.4022 33.456 77.5302 34.128C78.6582 34.776 79.3182 35.784 79.5102 37.152C79.5342 37.32 79.5462 37.524 79.5462 37.764C79.5462 38.028 79.5342 38.292 79.5102 38.556C79.3662 39.612 78.9582 40.428 78.2862 41.004C77.6382 41.604 76.7862 42.024 75.7302 42.264C74.6742 42.528 73.4862 42.66 72.1662 42.66ZM71.8062 27.504C72.5502 27.504 73.1262 27.348 73.5342 27.036C73.9662 26.724 74.2062 26.22 74.2542 25.524C74.3022 24.54 74.3142 23.544 74.2902 22.536C74.2902 21.504 74.2662 20.388 74.2182 19.188C74.1462 17.868 73.3422 17.208 71.8062 17.208C70.1742 17.208 69.3462 17.892 69.3222 19.26C69.2742 20.46 69.2382 21.54 69.2142 22.5C69.2142 23.46 69.2502 24.444 69.3222 25.452C69.3462 26.196 69.5742 26.724 70.0062 27.036C70.4382 27.348 71.0382 27.504 71.8062 27.504ZM72.3102 39.708C74.4702 39.708 75.6942 39.216 75.9822 38.232C76.1022 37.92 76.0902 37.584 75.9462 37.224C75.7062 36.384 74.4942 35.94 72.3102 35.892C71.2062 35.868 70.4022 35.976 69.8982 36.216C69.3942 36.48 69.0942 36.864 68.9982 37.368C68.9502 37.512 68.9262 37.668 68.9262 37.836C68.9502 38.028 68.9742 38.184 68.9982 38.304C69.0942 38.832 69.4062 39.192 69.9342 39.384C70.4622 39.6 71.2542 39.708 72.3102 39.708ZM82.2681 10.692V7.2H86.8401V10.692H82.2681ZM82.4841 36V14.4H86.6241V36H82.4841ZM90.0813 36V7.2H98.1813L100.125 18.54L101.025 32.292H102.321L103.185 18.54L105.165 7.2H113.193L113.265 36H109.017V27.396L109.665 10.872H108.045L106.353 27.612L104.517 35.928H98.6853L97.0293 27.612L95.2293 10.872H93.6453L94.3293 27.36V36H90.0813ZM123.212 36.324C120.86 36.324 119.192 35.856 118.208 34.92C117.248 33.96 116.708 32.376 116.588 30.168C116.564 29.568 116.54 28.848 116.516 28.008C116.492 27.144 116.48 26.244 116.48 25.308C116.48 24.372 116.48 23.46 116.48 22.572C116.504 21.66 116.54 20.88 116.588 20.232C116.708 17.976 117.248 16.392 118.208 15.48C119.192 14.544 120.86 14.076 123.212 14.076C124.796 14.076 126.056 14.292 126.992 14.724C127.928 15.132 128.6 15.792 129.008 16.704C129.44 17.592 129.704 18.768 129.8 20.232C129.824 21.072 129.836 22.104 129.836 23.328C129.86 24.528 129.86 25.752 129.836 27C129.836 28.224 129.824 29.28 129.8 30.168C129.704 31.632 129.44 32.82 129.008 33.732C128.576 34.644 127.892 35.304 126.956 35.712C126.02 36.12 124.772 36.324 123.212 36.324ZM123.212 33.192C124.1 33.192 124.712 33.024 125.048 32.688C125.408 32.352 125.6 31.836 125.624 31.14C125.72 29.004 125.768 27.012 125.768 25.164C125.768 23.292 125.72 21.312 125.624 19.224C125.6 18.528 125.408 18.024 125.048 17.712C124.688 17.376 124.076 17.208 123.212 17.208C122.324 17.208 121.688 17.388 121.304 17.748C120.92 18.084 120.716 18.588 120.692 19.26C120.644 20.964 120.608 22.86 120.584 24.948C120.584 27.012 120.632 29.076 120.728 31.14C120.752 31.836 120.944 32.352 121.304 32.688C121.688 33.024 122.324 33.192 123.212 33.192ZM135.531 36L132.111 14.4H136.395L137.871 25.272L138.483 32.94H139.383L140.031 25.272L141.507 14.4H145.791L142.335 36H135.531ZM156.835 28.044H160.939C160.939 28.308 160.939 28.728 160.939 29.304C160.963 29.88 160.975 30.36 160.975 30.744C160.855 32.736 160.315 34.164 159.355 35.028C158.395 35.892 156.835 36.324 154.675 36.324C152.395 36.324 150.763 35.892 149.779 35.028C148.795 34.14 148.243 32.712 148.123 30.744C148.099 30.048 148.075 29.208 148.051 28.224C148.051 27.24 148.051 26.22 148.051 25.164C148.051 24.108 148.051 23.1 148.051 22.14C148.075 21.18 148.099 20.364 148.123 19.692C148.243 17.676 148.807 16.236 149.815 15.372C150.847 14.508 152.443 14.076 154.603 14.076C156.787 14.076 158.371 14.508 159.355 15.372C160.339 16.236 160.879 17.628 160.975 19.548C160.975 19.812 160.975 20.304 160.975 21.024C160.999 21.744 160.999 22.548 160.975 23.436C160.975 24.324 160.963 25.164 160.939 25.956H152.227C152.227 26.796 152.239 27.648 152.263 28.512C152.287 29.376 152.311 30.276 152.335 31.212C152.359 31.932 152.551 32.448 152.911 32.76C153.271 33.048 153.847 33.192 154.639 33.192C155.431 33.192 155.983 33.048 156.295 32.76C156.607 32.448 156.787 31.92 156.835 31.176C156.859 30.816 156.871 30.372 156.871 29.844C156.871 29.316 156.859 28.716 156.835 28.044ZM154.603 17.208C153.787 17.208 153.211 17.364 152.875 17.676C152.539 17.988 152.359 18.468 152.335 19.116C152.311 19.764 152.287 20.412 152.263 21.06C152.263 21.684 152.263 22.32 152.263 22.968H156.871C156.871 22.152 156.871 21.372 156.871 20.628C156.871 19.86 156.859 19.356 156.835 19.116C156.787 18.42 156.583 17.928 156.223 17.64C155.887 17.352 155.347 17.208 154.603 17.208Z" fill="white"/>
<path d="M16.8757 0V7.29112L0 24.4605V17.1694L16.8757 0Z" fill="white"/>
<path d="M16.8757 14.5395V21.852L0 39V31.7089L16.8757 14.5395Z" fill="white"/>
<path d="M24 0V7.29112L7.12434 24.4605V17.1694L24 0Z" fill="#D62536"/>
<path d="M24 14.5395V21.852L7.12434 39V31.7089L24 14.5395Z" fill="#D62536"/>
</svg>
