<svg width="169" height="51" viewBox="0 0 169 51" fill="none" xmlns="http://www.w3.org/2000/svg">
<g filter="url(#filter0_d)">
<path d="M39.8 36V7.2H43.904V32.328H50.78V36H39.8ZM59.6771 36.324C57.3251 36.324 55.6571 35.856 54.6731 34.92C53.7131 33.96 53.1731 32.376 53.0531 30.168C53.0291 29.568 53.0051 28.848 52.9811 28.008C52.9571 27.144 52.9451 26.244 52.9451 25.308C52.9451 24.372 52.9451 23.46 52.9451 22.572C52.9691 21.66 53.0051 20.88 53.0531 20.232C53.1731 17.976 53.7131 16.392 54.6731 15.48C55.6571 14.544 57.3251 14.076 59.6771 14.076C61.2611 14.076 62.5211 14.292 63.4571 14.724C64.3931 15.132 65.0651 15.792 65.4731 16.704C65.9051 17.592 66.1691 18.768 66.2651 20.232C66.2891 21.072 66.3011 22.104 66.3011 23.328C66.3251 24.528 66.3251 25.752 66.3011 27C66.3011 28.224 66.2891 29.28 66.2651 30.168C66.1691 31.632 65.9051 32.82 65.4731 33.732C65.0411 34.644 64.3571 35.304 63.4211 35.712C62.4851 36.12 61.2371 36.324 59.6771 36.324ZM59.6771 33.192C60.5651 33.192 61.1771 33.024 61.5131 32.688C61.8731 32.352 62.0651 31.836 62.0891 31.14C62.1851 29.004 62.2331 27.012 62.2331 25.164C62.2331 23.292 62.1851 21.312 62.0891 19.224C62.0651 18.528 61.8731 18.024 61.5131 17.712C61.1531 17.376 60.5411 17.208 59.6771 17.208C58.7891 17.208 58.1531 17.388 57.7691 17.748C57.3851 18.084 57.1811 18.588 57.1571 19.26C57.1091 20.964 57.0731 22.86 57.0491 24.948C57.0491 27.012 57.0971 29.076 57.1931 31.14C57.2171 31.836 57.4091 32.352 57.7691 32.688C58.1531 33.024 58.7891 33.192 59.6771 33.192ZM76.1662 42.66C74.1502 42.66 72.5542 42.372 71.3782 41.796C70.2262 41.22 69.5782 40.452 69.4342 39.492C69.4102 39.348 69.3862 39.168 69.3622 38.952C69.3382 38.736 69.3382 38.544 69.3622 38.376C69.4342 37.776 69.6982 37.284 70.1542 36.9C70.6342 36.54 71.2462 36.3 71.9902 36.18V35.568C70.5502 35.304 69.7582 34.644 69.6142 33.588C69.6142 33.372 69.6142 33.204 69.6142 33.084C69.6142 32.94 69.6142 32.796 69.6142 32.652C69.6862 32.148 69.9262 31.704 70.3342 31.32C70.7662 30.936 71.3302 30.696 72.0262 30.6V29.988C71.1382 29.604 70.4782 29.004 70.0462 28.188C69.6142 27.372 69.3622 26.316 69.2902 25.02C69.2422 24.012 69.2182 23.1 69.2182 22.284C69.2182 21.468 69.2422 20.604 69.2902 19.692C69.4102 17.676 69.9742 16.236 70.9822 15.372C71.9902 14.508 73.5982 14.076 75.8062 14.076C78.6862 14.076 80.5582 14.856 81.4222 16.416H82.0702C82.2142 15.096 83.1022 14.424 84.7342 14.4V17.568H84.2662C83.6422 17.568 83.1622 17.736 82.8262 18.072C82.4902 18.384 82.3222 18.936 82.3222 19.728C82.3462 20.904 82.3462 21.888 82.3222 22.68C82.3222 23.472 82.3102 24.252 82.2862 25.02C82.1662 27.012 81.6022 28.452 80.5942 29.34C79.6102 30.204 78.0142 30.636 75.8062 30.636C75.7582 30.636 75.6982 30.636 75.6262 30.636C75.5782 30.636 75.5302 30.636 75.4822 30.636C74.4982 30.636 73.8262 30.744 73.4662 30.96C73.1302 31.152 72.9622 31.428 72.9622 31.788V32.004C72.9622 32.412 73.2382 32.688 73.7902 32.832C74.3422 32.952 75.2422 33.024 76.4902 33.048C78.7222 33.096 80.4022 33.456 81.5302 34.128C82.6582 34.776 83.3182 35.784 83.5102 37.152C83.5342 37.32 83.5462 37.524 83.5462 37.764C83.5462 38.028 83.5342 38.292 83.5102 38.556C83.3662 39.612 82.9582 40.428 82.2862 41.004C81.6382 41.604 80.7862 42.024 79.7302 42.264C78.6742 42.528 77.4862 42.66 76.1662 42.66ZM75.8062 27.504C76.5502 27.504 77.1262 27.348 77.5342 27.036C77.9662 26.724 78.2062 26.22 78.2542 25.524C78.3022 24.54 78.3142 23.544 78.2902 22.536C78.2902 21.504 78.2662 20.388 78.2182 19.188C78.1462 17.868 77.3422 17.208 75.8062 17.208C74.1742 17.208 73.3462 17.892 73.3222 19.26C73.2742 20.46 73.2382 21.54 73.2142 22.5C73.2142 23.46 73.2502 24.444 73.3222 25.452C73.3462 26.196 73.5742 26.724 74.0062 27.036C74.4382 27.348 75.0382 27.504 75.8062 27.504ZM76.3102 39.708C78.4702 39.708 79.6942 39.216 79.9822 38.232C80.1022 37.92 80.0902 37.584 79.9462 37.224C79.7062 36.384 78.4942 35.94 76.3102 35.892C75.2062 35.868 74.4022 35.976 73.8982 36.216C73.3942 36.48 73.0942 36.864 72.9982 37.368C72.9502 37.512 72.9262 37.668 72.9262 37.836C72.9502 38.028 72.9742 38.184 72.9982 38.304C73.0942 38.832 73.4062 39.192 73.9342 39.384C74.4622 39.6 75.2542 39.708 76.3102 39.708ZM86.2681 10.692V7.2H90.8401V10.692H86.2681ZM86.4841 36V14.4H90.6241V36H86.4841ZM94.0813 36V7.2H102.181L104.125 18.54L105.025 32.292H106.321L107.185 18.54L109.165 7.2H117.193L117.265 36H113.017V27.396L113.665 10.872H112.045L110.353 27.612L108.517 35.928H102.685L101.029 27.612L99.2293 10.872H97.6453L98.3293 27.36V36H94.0813ZM127.212 36.324C124.86 36.324 123.192 35.856 122.208 34.92C121.248 33.96 120.708 32.376 120.588 30.168C120.564 29.568 120.54 28.848 120.516 28.008C120.492 27.144 120.48 26.244 120.48 25.308C120.48 24.372 120.48 23.46 120.48 22.572C120.504 21.66 120.54 20.88 120.588 20.232C120.708 17.976 121.248 16.392 122.208 15.48C123.192 14.544 124.86 14.076 127.212 14.076C128.796 14.076 130.056 14.292 130.992 14.724C131.928 15.132 132.6 15.792 133.008 16.704C133.44 17.592 133.704 18.768 133.8 20.232C133.824 21.072 133.836 22.104 133.836 23.328C133.86 24.528 133.86 25.752 133.836 27C133.836 28.224 133.824 29.28 133.8 30.168C133.704 31.632 133.44 32.82 133.008 33.732C132.576 34.644 131.892 35.304 130.956 35.712C130.02 36.12 128.772 36.324 127.212 36.324ZM127.212 33.192C128.1 33.192 128.712 33.024 129.048 32.688C129.408 32.352 129.6 31.836 129.624 31.14C129.72 29.004 129.768 27.012 129.768 25.164C129.768 23.292 129.72 21.312 129.624 19.224C129.6 18.528 129.408 18.024 129.048 17.712C128.688 17.376 128.076 17.208 127.212 17.208C126.324 17.208 125.688 17.388 125.304 17.748C124.92 18.084 124.716 18.588 124.692 19.26C124.644 20.964 124.608 22.86 124.584 24.948C124.584 27.012 124.632 29.076 124.728 31.14C124.752 31.836 124.944 32.352 125.304 32.688C125.688 33.024 126.324 33.192 127.212 33.192ZM139.531 36L136.111 14.4H140.395L141.871 25.272L142.483 32.94H143.383L144.031 25.272L145.507 14.4H149.791L146.335 36H139.531ZM160.835 28.044H164.939C164.939 28.308 164.939 28.728 164.939 29.304C164.963 29.88 164.975 30.36 164.975 30.744C164.855 32.736 164.315 34.164 163.355 35.028C162.395 35.892 160.835 36.324 158.675 36.324C156.395 36.324 154.763 35.892 153.779 35.028C152.795 34.14 152.243 32.712 152.123 30.744C152.099 30.048 152.075 29.208 152.051 28.224C152.051 27.24 152.051 26.22 152.051 25.164C152.051 24.108 152.051 23.1 152.051 22.14C152.075 21.18 152.099 20.364 152.123 19.692C152.243 17.676 152.807 16.236 153.815 15.372C154.847 14.508 156.443 14.076 158.603 14.076C160.787 14.076 162.371 14.508 163.355 15.372C164.339 16.236 164.879 17.628 164.975 19.548C164.975 19.812 164.975 20.304 164.975 21.024C164.999 21.744 164.999 22.548 164.975 23.436C164.975 24.324 164.963 25.164 164.939 25.956H156.227C156.227 26.796 156.239 27.648 156.263 28.512C156.287 29.376 156.311 30.276 156.335 31.212C156.359 31.932 156.551 32.448 156.911 32.76C157.271 33.048 157.847 33.192 158.639 33.192C159.431 33.192 159.983 33.048 160.295 32.76C160.607 32.448 160.787 31.92 160.835 31.176C160.859 30.816 160.871 30.372 160.871 29.844C160.871 29.316 160.859 28.716 160.835 28.044ZM158.603 17.208C157.787 17.208 157.211 17.364 156.875 17.676C156.539 17.988 156.359 18.468 156.335 19.116C156.311 19.764 156.287 20.412 156.263 21.06C156.263 21.684 156.263 22.32 156.263 22.968H160.871C160.871 22.152 160.871 21.372 160.871 20.628C160.871 19.86 160.859 19.356 160.835 19.116C160.787 18.42 160.583 17.928 160.223 17.64C159.887 17.352 159.347 17.208 158.603 17.208Z" fill="black"/>
<path d="M20.8757 0V7.29112L4 24.4605V17.1694L20.8757 0Z" fill="black"/>
<path d="M20.8757 14.5395V21.852L4 39V31.7089L20.8757 14.5395Z" fill="black"/>
<path d="M28 0V7.29112L11.1243 24.4605V17.1694L28 0Z" fill="#D62536"/>
<path d="M28 14.5395V21.852L11.1243 39V31.7089L28 14.5395Z" fill="#D62536"/>
</g>
<defs>
<filter id="filter0_d" x="0" y="0" width="168.993" height="50.66" filterUnits="userSpaceOnUse" color-interpolation-filters="sRGB">
<feFlood flood-opacity="0" result="BackgroundImageFix"/>
<feColorMatrix in="SourceAlpha" type="matrix" values="0 0 0 0 0 0 0 0 0 0 0 0 0 0 0 0 0 0 127 0"/>
<feOffset dy="4"/>
<feGaussianBlur stdDeviation="2"/>
<feColorMatrix type="matrix" values="0 0 0 0 0 0 0 0 0 0 0 0 0 0 0 0 0 0 0.25 0"/>
<feBlend mode="normal" in2="BackgroundImageFix" result="effect1_dropShadow"/>
<feBlend mode="normal" in="SourceGraphic" in2="effect1_dropShadow" result="shape"/>
</filter>
</defs>
</svg>
